HIERARCHY
ROOT Hips
{
  OFFSET 5.72205e-005 65.662 3.42586
  CHANNELS 6 Xposition Yposition Zposition Zrotation Xrotation Yrotation
  JOINT Chest
  {
    OFFSET 0 8.7983 -4.7612
    CHANNELS 3 Zrotation Xrotation Yrotation
    JOINT Chest2
    {
      OFFSET 0 8.0291 0.4195
      CHANNELS 3 Zrotation Xrotation Yrotation
      JOINT Chest3
      {
        OFFSET 0 9.9351 -2.2114
        CHANNELS 3 Zrotation Xrotation Yrotation
        JOINT Neck
        {
          OFFSET 0 22.3885 -0.4656
          CHANNELS 3 Zrotation Xrotation Yrotation
          JOINT Head
          {
            OFFSET -0.0001 12.643 3.4389
            CHANNELS 3 Zrotation Xrotation Yrotation
            End Site
            {
              OFFSET 0.0001 17.6655 0.5274
            }
          }
        }
        JOINT LeftCollar
        {
          OFFSET 2.2603 21.606 7.4023
          CHANNELS 3 Zrotation Xrotation Yrotation
          JOINT LeftShoulder
          {
            OFFSET 13.5163 -1.1332 -5.0146
            CHANNELS 3 Zrotation Xrotation Yrotation
            JOINT LeftElbow
            {
              OFFSET -0.0995 -28.05 -0.2431
              CHANNELS 3 Zrotation Xrotation Yrotation
              JOINT LeftWrist
              {
                OFFSET 0.0679 -23.3996 -0.1402
                CHANNELS 3 Zrotation Xrotation Yrotation
                JOINT LeftFinger1
                {
                  OFFSET 0.7932 -9.069 2.5189
                  CHANNELS 3 Zrotation Xrotation Yrotation
                  JOINT LeftFinger11
                  {
                    OFFSET -0.8272 -3.3923 0.5977
                    CHANNELS 3 Zrotation Xrotation Yrotation
                    JOINT LeftFinger12
                    {
                      OFFSET -0.5649 -2.3158 0.4082
                      CHANNELS 3 Zrotation Xrotation Yrotation
                      End Site
                      {
                        OFFSET -0.4919 -1.6479 0.2673
                      }
                    }
                  }
                }
                JOINT LeftFinger2
                {
                  OFFSET 0.9159 -9.2044 0.2193
                  CHANNELS 3 Zrotation Xrotation Yrotation
                  JOINT LeftFinger21
                  {
                    OFFSET 0.0117 -4.1944 -0.0248
                    CHANNELS 3 Zrotation Xrotation Yrotation
                    JOINT LeftFinger22
                    {
                      OFFSET 0.0071 -2.3249 -0.0142
                      CHANNELS 3 Zrotation Xrotation Yrotation
                      End Site
                      {
                        OFFSET -0.1475 -2.0882 0.0028
                      }
                    }
                  }
                }
                JOINT LeftFinger3
                {
                  OFFSET 0.6113 -8.7231 -2.0637
                  CHANNELS 3 Zrotation Xrotation Yrotation
                  JOINT LeftFinger31
                  {
                    OFFSET -0.1927 -3.8059 -0.2383
                    CHANNELS 3 Zrotation Xrotation Yrotation
                    JOINT LeftFinger32
                    {
                      OFFSET -0.1091 -2.1688 -0.1362
                      CHANNELS 3 Zrotation Xrotation Yrotation
                      End Site
                      {
                        OFFSET -0.2358 -1.9176 -0.0906
                      }
                    }
                  }
                }
                JOINT LeftFinger4
                {
                  OFFSET -0.6151 -8.0947 -3.5641
                  CHANNELS 3 Zrotation Xrotation Yrotation
                  JOINT LeftFinger41
                  {
                    OFFSET -0.4882 -2.341 -0.6462
                    CHANNELS 3 Zrotation Xrotation Yrotation
                    JOINT LeftFinger42
                    {
                      OFFSET -0.3575 -1.7167 -0.4742
                      CHANNELS 3 Zrotation Xrotation Yrotation
                      End Site
                      {
                        OFFSET -0.4187 -1.5237 -0.3496
                      }
                    }
                  }
                }
                JOINT LeftFinger0
                {
                  OFFSET -1.42 -1.8761 1.4223
                  CHANNELS 3 Zrotation Xrotation Yrotation
                  JOINT LeftFinger01
                  {
                    OFFSET -1.1471 -3.4929 2.6334
                    CHANNELS 3 Zrotation Xrotation Yrotation
                    JOINT LeftFinger02
                    {
                      OFFSET -0.823 -2.3 1.6571
                      CHANNELS 3 Zrotation Xrotation Yrotation
                      End Site
                      {
                        OFFSET -0.5822 -1.6914 1.1582
                      }
                    }
                  }
                }
              }
            }
          }
        }
        JOINT RightCollar
        {
          OFFSET -2.2603 21.606 7.4023
          CHANNELS 3 Zrotation Xrotation Yrotation
          JOINT RightShoulder
          {
            OFFSET -13.5187 -1.1334 -5.0155
            CHANNELS 3 Zrotation Xrotation Yrotation
            JOINT RightElbow
            {
              OFFSET 0.0994 -28.0499 -0.2431
              CHANNELS 3 Zrotation Xrotation Yrotation
              JOINT RightWrist
              {
                OFFSET -0.0679 -23.3996 -0.1402
                CHANNELS 3 Zrotation Xrotation Yrotation
                JOINT RightFinger1
                {
                  OFFSET -0.7932 -9.0691 2.5189
                  CHANNELS 3 Zrotation Xrotation Yrotation
                  JOINT RightFinger11
                  {
                    OFFSET 0.8272 -3.3923 0.5977
                    CHANNELS 3 Zrotation Xrotation Yrotation
                    JOINT RightFinger12
                    {
                      OFFSET 0.565 -2.3158 0.4082
                      CHANNELS 3 Zrotation Xrotation Yrotation
                      End Site
                      {
                        OFFSET 0.4919 -1.6479 0.2673
                      }
                    }
                  }
                }
                JOINT RightFinger2
                {
                  OFFSET -0.916 -9.2044 0.2193
                  CHANNELS 3 Zrotation Xrotation Yrotation
                  JOINT RightFinger21
                  {
                    OFFSET -0.0117 -4.1944 -0.0248
                    CHANNELS 3 Zrotation Xrotation Yrotation
                    JOINT RightFinger22
                    {
                      OFFSET -0.0071 -2.3249 -0.0142
                      CHANNELS 3 Zrotation Xrotation Yrotation
                      End Site
                      {
                        OFFSET 0.1475 -2.0882 0.0028
                      }
                    }
                  }
                }
                JOINT RightFinger3
                {
                  OFFSET -0.6113 -8.7231 -2.0637
                  CHANNELS 3 Zrotation Xrotation Yrotation
                  JOINT RightFinger31
                  {
                    OFFSET 0.1927 -3.8059 -0.2383
                    CHANNELS 3 Zrotation Xrotation Yrotation
                    JOINT RightFinger32
                    {
                      OFFSET 0.1091 -2.1688 -0.1362
                      CHANNELS 3 Zrotation Xrotation Yrotation
                      End Site
                      {
                        OFFSET 0.2358 -1.9176 -0.0906
                      }
                    }
                  }
                }
                JOINT RightFinger4
                {
                  OFFSET 0.6151 -8.0947 -3.564
                  CHANNELS 3 Zrotation Xrotation Yrotation
                  JOINT RightFinger41
                  {
                    OFFSET 0.4882 -2.341 -0.6462
                    CHANNELS 3 Zrotation Xrotation Yrotation
                    JOINT RightFinger42
                    {
                      OFFSET 0.3574 -1.7166 -0.4742
                      CHANNELS 3 Zrotation Xrotation Yrotation
                      End Site
                      {
                        OFFSET 0.4187 -1.5237 -0.3496
                      }
                    }
                  }
                }
                JOINT RightFinger0
                {
                  OFFSET 1.4199 -1.8761 1.4221
                  CHANNELS 3 Zrotation Xrotation Yrotation
                  JOINT RightFinger01
                  {
                    OFFSET 1.1472 -3.4929 2.6336
                    CHANNELS 3 Zrotation Xrotation Yrotation
                    JOINT RightFinger02
                    {
                      OFFSET 0.8229 -2.3 1.6571
                      CHANNELS 3 Zrotation Xrotation Yrotation
                      End Site
                      {
                        OFFSET 0.5822 -1.6914 1.1582
                      }
                    }
                  }
                }
              }
            }
          }
        }
      }
    }
  }
  JOINT RightHip
  {
    OFFSET -9.412 3.9771 -0.7758
    CHANNELS 3 Zrotation Xrotation Yrotation
    JOINT RightKnee
    {
      OFFSET -0.7531 -40.938 0
      CHANNELS 3 Zrotation Xrotation Yrotation
      JOINT RightAnkle
      {
        OFFSET 0 -40.1986 0
        CHANNELS 3 Zrotation Xrotation Yrotation
        JOINT RightToe
        {
          OFFSET 0 -4.4182 9.239
          CHANNELS 3 Zrotation Xrotation Yrotation
          End Site
          {
            OFFSET 0 0 6.1981
          }
        }
      }
    }
  }
  JOINT LeftHip
  {
    OFFSET 9.4119 3.9773 -0.7758
    CHANNELS 3 Zrotation Xrotation Yrotation
    JOINT LeftKnee
    {
      OFFSET 0.7532 -40.9383 0
      CHANNELS 3 Zrotation Xrotation Yrotation
      JOINT LeftAnkle
      {
        OFFSET 0 -40.1986 0
        CHANNELS 3 Zrotation Xrotation Yrotation
        JOINT LeftToe
        {
          OFFSET 0 -4.4182 9.239
          CHANNELS 3 Zrotation Xrotation Yrotation
          End Site
          {
            OFFSET 0 0 6.1981
          }
        }
      }
    }
  }
}
MOTION
Frames:	5
Frame Time:	0.0333333
5.72205e-005 65.662 3.42586 0 0 -0 0 0 -0 0 0 -0 0 0 -0 0 0 -0 0 0 -0 0 0 -12.5014 88.1196 14.2451 10.6914 -0.00160068 -0.00239207 0.000740045 -8.4365e-005 7.00714e-005 -9.52055e-007 9.93923e-017 -1.98785e-016 -1.59028e-015 9.93923e-017 -5.96354e-016 -1.59028e-015 -9.93923e-017 -5.96354e-016 -1.59028e-015 9.93923e-017 -1.98785e-016 -1.59028e-015 -0.0128176 0.00232552 8.52707e-005 9.93923e-017 5.96354e-016 -0 9.93923e-017 -1.98785e-016 -1.59028e-015 -0.0160551 0.00299681 0.000857156 -2.48481e-016 0 3.18055e-015 9.93923e-017 -1.98785e-016 -1.59028e-015 -0.0125865 0.0031206 0.00282719 0 1.98785e-016 -0 9.93923e-017 -1.98785e-016 -1.59028e-015 9.93923e-017 -5.96354e-016 -1.59028e-015 -9.93923e-017 -5.96354e-016 -1.59028e-015 -0.865644 0.16582 7.03859 -88.0329 10.2057 -10.5567 0.0015593 -0.00248883 -0.000788628 7.87605e-005 4.10553e-005 1.24965e-005 -3.97569e-016 -7.95139e-016 3.18055e-015 -1.98785e-016 -3.97569e-016 3.18055e-015 -1.98785e-016 0 3.18055e-015 -3.97569e-016 -7.95139e-016 3.18055e-015 0.0129473 0.00231697 -8.70038e-005 9.93923e-017 -7.95139e-016 1.59028e-015 -3.97569e-016 -7.95139e-016 3.18055e-015 0.0163314 0.00303369 -0.000872333 3.97569e-016 7.95139e-016 -3.18055e-015 -3.97569e-016 -7.95139e-016 3.18055e-015 0.0145763 0.00367772 -0.00326275 9.93923e-017 -3.97569e-016 -0 -3.97569e-016 -7.95139e-016 3.18055e-015 -1.98785e-016 -3.97569e-016 3.18055e-015 -1.98785e-016 0 3.18055e-015 3.42482 1.32465 -0.0626183 0.000117508 0.717283 0.000978199 -3.4257 -2.04197 -0.0604716 6.47761e-025 0 -0 -3.42483 1.34017 0.0627307 -0.000193936 0.682302 -0.0013703 3.42574 -2.02253 0.0595886 -8.45714e-024 0 -7.40531e-025 
1.45928 12.1097 24.04 -170.689 -78.3771 -1.54115 -0.074056 -5.18736 -0.308696 -0.177426 -10.3742 -0.628056 -0.177428 -10.3742 -0.628057 0.115914 0.291671 0.0940709 -5.78479e-006 0.140099 -2.73542e-007 16.0481 -0.39241 -22.2736 80.359 -20.9069 31.8464 -23.7498 -53.0298 -23.3472 63.3656 -8.56156 7.34819 1.59028e-015 -1.19271e-015 -7.45443e-016 7.95139e-016 -3.97569e-016 -6.95746e-016 7.95139e-016 -7.95139e-016 5.71506e-015 1.59028e-015 -1.19271e-015 -7.45443e-016 -0.0128312 0.00233152 9.96489e-005 1.59028e-015 7.95139e-016 -1.83876e-015 1.59028e-015 -1.19271e-015 -7.45443e-016 -0.0160292 0.00299776 0.000855767 2.38542e-015 1.59028e-015 1.23743e-014 1.59028e-015 -1.19271e-015 -7.45443e-016 -0.0125367 0.00312185 0.00283315 -1.59028e-015 7.95139e-016 -2.03754e-015 1.59028e-015 -1.19271e-015 -7.45443e-016 7.95139e-016 -3.97569e-016 -6.95746e-016 7.95139e-016 -7.95139e-016 5.71506e-015 19.2397 0.208306 5.52295 -71.0246 -37.9116 1.58301 -14.4565 -35.7575 -15.4493 -63.2924 -7.53766 -8.40782 -9.93923e-017 -6.36111e-015 4.96962e-017 6.05508e-007 3.52365e-006 -3.76879e-006 2.98177e-016 1.27222e-014 1.49089e-016 -9.93923e-017 -6.36111e-015 4.96962e-017 0.0129365 0.00231965 -9.27968e-005 1.98785e-016 0 4.96962e-017 -9.93923e-017 -6.36111e-015 4.96962e-017 0.0163569 0.00303653 -0.000885483 5.51738e-033 -6.36111e-015 4.96962e-017 -9.93923e-017 -6.36111e-015 4.96962e-017 0.0146115 0.00368845 -0.00327482 2.18723e-006 -2.71215e-006 5.8019e-006 -9.93923e-017 -6.36111e-015 4.96962e-017 6.05508e-007 3.52365e-006 -3.76879e-006 2.98177e-016 1.27222e-014 1.49089e-016 -32.798 -54.5726 -48.7798 7.62915 55.8788 -4.99171 -11.6331 47.1547 14.8531 -1.65232e-006 3.42123e-006 3.40867e-007 31.519 -54.5316 47.5009 -7.73454 54.3074 5.4409 11.4603 46.954 -14.5902 -7.95139e-016 -3.98421e-006 7.95139e-016 
0.819472 15.7506 23.0918 178.468 -76.74 -1.20172 -0.0749804 -4.62153 -0.288433 -0.174244 -9.24256 -0.58583 -0.174244 -9.24259 -0.585832 0.173575 0.5036 0.0191743 1.22595e-007 0.0265997 8.79318e-008 14.1019 0.902343 -23.3507 80.9248 -18.3772 30.687 -20.224 -48.4877 -20.0832 59.3748 -9.48782 6.97566 3.18055e-015 9.93923e-016 2.08724e-015 3.18055e-015 0 8.34896e-015 1.59028e-015 -7.95139e-016 6.60959e-015 3.18055e-015 9.93923e-016 2.08724e-015 -0.0128178 0.00233469 8.87813e-005 3.18055e-015 5.96354e-016 1.78906e-015 3.18055e-015 9.93923e-016 2.08724e-015 -0.0160358 0.00299647 0.000858384 1.59028e-015 9.93923e-016 5.76476e-015 3.18055e-015 9.93923e-016 2.08724e-015 -0.0125833 0.00312562 0.00282837 -1.59028e-015 1.39149e-015 -6.90777e-015 3.18055e-015 9.93923e-016 2.08724e-015 3.18055e-015 0 8.34896e-015 1.59028e-015 -7.95139e-016 6.60959e-015 18.8366 0.883767 6.44567 -72.2391 -34.2203 0.726126 -13.4389 -32.7485 -14.5528 -59.0893 -8.1657 -7.49426 1.59028e-015 3.18055e-015 -7.95139e-016 1.76556e-031 6.36111e-015 -1.59028e-015 -4.41391e-032 -3.18055e-015 -7.95139e-016 1.59028e-015 3.18055e-015 -7.95139e-016 0.0129746 0.00231824 -8.48873e-005 -3.18055e-015 3.18055e-015 -1.59028e-015 1.59028e-015 3.18055e-015 -7.95139e-016 0.0163405 0.00302762 -0.000876523 -1.59028e-015 -9.54166e-015 4.77083e-015 1.59028e-015 3.18055e-015 -7.95139e-016 0.01454 0.0036665 -0.00325564 2.64834e-031 6.36111e-015 -2.38542e-015 1.59028e-015 3.18055e-015 -7.95139e-016 1.76556e-031 6.36111e-015 -1.59028e-015 -4.41391e-032 -3.18055e-015 -7.95139e-016 -23.2981 -49.886 -38.4403 7.07563 51.5821 -4.48058 -8.63197 44.5542 11.6304 1.55056e-006 2.73862e-006 -6.53256e-007 22.4903 -49.4737 37.5511 -7.1983 50.3935 4.81269 8.35962 43.9922 -11.3921 7.15625e-015 4.91191e-006 1.59028e-015 
0.815985 15.0654 22.7307 178.277 -79.5641 -1.42348 -0.0796519 -4.37286 -0.286616 -0.182116 -8.74527 -0.581904 -0.182117 -8.7453 -0.581906 0.234721 0.71993 -0.0466128 -1.43501e-007 -0.0727833 2.44435e-007 13.1812 2.13545 -24.8961 81.072 -17.9504 30.7653 -18.9946 -47.0538 -19.1298 59.1804 -10.5896 7.23901 1.59028e-015 -5.96354e-016 -1.49089e-016 3.18055e-015 -9.93923e-016 -9.93923e-017 -1.20693e-033 1.98785e-016 3.47873e-016 1.59028e-015 -5.96354e-016 -1.49089e-016 -0.0128153 0.00232266 8.26683e-005 1.59028e-015 3.97569e-016 1.63997e-015 1.59028e-015 -5.96354e-016 -1.49089e-016 -0.0160196 0.00299971 0.000868081 2.09626e-006 -1.11985e-005 -1.25788e-005 1.59028e-015 -5.96354e-016 -1.49089e-016 -0.0125678 0.00311539 0.0028187 5.17255e-033 -1.19271e-015 2.48481e-016 1.59028e-015 -5.96354e-016 -1.49089e-016 3.18055e-015 -9.93923e-016 -9.93923e-017 -1.20693e-033 1.98785e-016 3.47873e-016 19.5651 1.53537 7.22531 -72.6293 -33.4587 0.446538 -13.2162 -31.8488 -14.4358 -58.6743 -8.89562 -7.26818 -1.59028e-015 -6.36111e-015 -0 3.18055e-015 -1.27222e-014 7.95139e-016 -1.59028e-015 3.18055e-015 -7.95139e-016 -1.59028e-015 -6.36111e-015 -0 0.0129471 0.00230632 -9.17603e-005 6.62086e-031 -1.59028e-014 2.38542e-015 -1.59028e-015 -6.36111e-015 -0 0.0163379 0.00303641 -0.000870266 1.59028e-015 -3.18055e-015 7.95139e-016 -1.59028e-015 -6.36111e-015 -0 0.0145907 0.00367994 -0.00326312 3.18055e-015 3.18055e-015 -7.95139e-016 -1.59028e-015 -6.36111e-015 -0 3.18055e-015 -1.27222e-014 7.95139e-016 -1.59028e-015 3.18055e-015 -7.95139e-016 -20.7438 -46.8221 -34.8205 7.2216 50.6332 -4.493 -7.19366 44.6967 10.2197 -6.08966e-006 4.81015e-006 3.369e-007 19.9295 -46.309 34.0169 -7.24733 49.3035 4.74957 6.98801 44.2032 -10.0125 -2.28044e-006 7.22683e-006 -3.42585e-007 
0.812717 14.3845 22.3504 177.93 -82.4006 -1.80021 -0.0842906 -4.12243 -0.284642 -0.189916 -8.24441 -0.577636 -0.189917 -8.24442 -0.577637 0.296144 0.936264 -0.11266 -1.55038e-007 -0.172186 -1.47554e-007 12.2909 3.3962 -26.4271 81.2209 -17.5231 30.843 -17.8318 -45.6037 -18.2437 58.9903 -11.693 7.49971 1.59028e-015 9.93923e-016 7.95139e-016 6.98504e-007 1.06787e-006 -4.19241e-006 1.60349e-032 5.96354e-016 -1.54058e-015 1.59028e-015 9.93923e-016 7.95139e-016 -0.012841 0.0023437 8.70097e-005 -1.59028e-015 -9.93923e-016 -2.5345e-015 1.59028e-015 9.93923e-016 7.95139e-016 -0.0160479 0.00298914 0.000861777 -6.05058e-006 -5.27143e-006 -7.67975e-006 1.59028e-015 9.93923e-016 7.95139e-016 -0.0125637 0.00311072 0.0028175 1.59028e-015 -7.95139e-016 3.8763e-015 1.59028e-015 9.93923e-016 7.95139e-016 6.98504e-007 1.06787e-006 -4.19241e-006 1.60349e-032 5.96354e-016 -1.54058e-015 20.2855 2.19735 7.99757 -73.0213 -32.7015 0.170345 -12.9888 -30.9421 -14.3224 -58.2554 -9.62414 -7.03621 1.09341e-005 -1.33791e-006 -1.2567e-006 1.59028e-015 3.18055e-015 -2.38542e-015 -1.09341e-005 1.33791e-006 1.2567e-006 1.09341e-005 -1.33791e-006 -1.2567e-006 0.0129667 0.00231796 -9.01012e-005 -8.30238e-006 -1.30608e-006 3.32907e-006 1.09341e-005 -1.33791e-006 -1.2567e-006 0.0163547 0.00303863 -0.000876012 -6.98638e-006 1.73098e-006 4.36546e-006 1.09341e-005 -1.33791e-006 -1.2567e-006 0.0146144 0.00369233 -0.00326794 1.59028e-015 1.27222e-014 -1.59028e-015 1.09341e-005 -1.33791e-006 -1.2567e-006 1.59028e-015 3.18055e-015 -2.38542e-015 -1.09341e-005 1.33791e-006 1.2567e-006 -18.5842 -43.6303 -31.5604 7.37371 49.6805 -4.50305 -5.74851 44.8144 8.80132 4.89675e-007 1.77802e-008 6.90784e-007 17.7608 -43.0186 30.842 -7.30521 48.2121 4.68882 5.60613 44.3899 -8.62136 7.95139e-016 4.04653e-006 -2.38542e-015 
